<mxfile host="65bd71144e">
    <diagram name="PÃ¡gina-1" id="WJVSc9xlQSj55sSUPpFw">
        <mxGraphModel dx="1360" dy="3212" grid="0" gridSize="10" guides="1" tooltips="1" connect="1" arrows="1" fold="1" page="1" pageScale="1" pageWidth="827" pageHeight="1169" background="#ffffff" math="0" shadow="0">
            <root>
                <mxCell id="0"/>
                <mxCell id="1" parent="0"/>
                <mxCell id="wn6AxMTklVbPtlHy1Jbe-5" value="OK" style="edgeStyle=orthogonalEdgeStyle;rounded=0;orthogonalLoop=1;jettySize=auto;html=1;exitX=1;exitY=0.5;exitDx=0;exitDy=0;entryX=0;entryY=0.5;entryDx=0;entryDy=0;fontColor=#000000;labelBackgroundColor=#FFFFFF;" parent="1" source="wn6AxMTklVbPtlHy1Jbe-1" target="wn6AxMTklVbPtlHy1Jbe-2" edge="1">
                    <mxGeometry relative="1" as="geometry">
                        <Array as="points">
                            <mxPoint x="1342" y="172"/>
                            <mxPoint x="1342" y="102"/>
                        </Array>
                    </mxGeometry>
                </mxCell>
                <mxCell id="wn6AxMTklVbPtlHy1Jbe-6" style="edgeStyle=orthogonalEdgeStyle;rounded=0;orthogonalLoop=1;jettySize=auto;html=1;exitX=1;exitY=0.5;exitDx=0;exitDy=0;entryX=0;entryY=0.5;entryDx=0;entryDy=0;fontColor=#000000;labelBackgroundColor=#FFFFFF;" parent="1" source="wn6AxMTklVbPtlHy1Jbe-1" target="wn6AxMTklVbPtlHy1Jbe-3" edge="1">
                    <mxGeometry relative="1" as="geometry"/>
                </mxCell>
                <mxCell id="wn6AxMTklVbPtlHy1Jbe-7" value="NO NEW LINE&lt;br&gt;OR ERROR" style="edgeLabel;html=1;align=center;verticalAlign=middle;resizable=0;points=[];fontColor=#000000;labelBackgroundColor=#FFFFFF;" parent="wn6AxMTklVbPtlHy1Jbe-6" vertex="1" connectable="0">
                    <mxGeometry x="-0.1382" y="2" relative="1" as="geometry">
                        <mxPoint y="12" as="offset"/>
                    </mxGeometry>
                </mxCell>
                <mxCell id="wn6AxMTklVbPtlHy1Jbe-10" style="edgeStyle=orthogonalEdgeStyle;rounded=0;orthogonalLoop=1;jettySize=auto;html=1;exitX=0;exitY=0.5;exitDx=0;exitDy=0;fontColor=#000000;labelBackgroundColor=#FFFFFF;strokeColor=#FFFFFF;" parent="1" source="wn6AxMTklVbPtlHy1Jbe-1" target="wn6AxMTklVbPtlHy1Jbe-8" edge="1">
                    <mxGeometry relative="1" as="geometry"/>
                </mxCell>
                <mxCell id="wn6AxMTklVbPtlHy1Jbe-1" value="get_next_line" style="rounded=0;whiteSpace=wrap;html=1;fontColor=#333333;labelBackgroundColor=#FFFFFF;strokeColor=#666666;fillColor=#FFFFFF;spacing=7;" parent="1" vertex="1">
                    <mxGeometry x="1127" y="142" width="120" height="60" as="geometry"/>
                </mxCell>
                <mxCell id="wn6AxMTklVbPtlHy1Jbe-2" value="line from fd" style="rounded=0;whiteSpace=wrap;html=1;fontColor=#333333;labelBackgroundColor=#FFFFFF;fillColor=#FFFFFF;strokeColor=#666666;spacing=7;" parent="1" vertex="1">
                    <mxGeometry x="1437" y="72" width="120" height="60" as="geometry"/>
                </mxCell>
                <mxCell id="wn6AxMTklVbPtlHy1Jbe-3" value="NULL" style="rounded=0;whiteSpace=wrap;html=1;fontColor=#333333;labelBackgroundColor=#FFFFFF;fillColor=#FFFFFF;strokeColor=#666666;spacing=7;" parent="1" vertex="1">
                    <mxGeometry x="1437" y="202" width="120" height="60" as="geometry"/>
                </mxCell>
                <mxCell id="wn6AxMTklVbPtlHy1Jbe-8" value="FILE OR STDIN" style="rounded=0;whiteSpace=wrap;html=1;fontColor=#333333;labelBackgroundColor=#FFFFFF;strokeColor=#666666;fillColor=#FFFFFF;spacing=7;" parent="1" vertex="1">
                    <mxGeometry x="937" y="142" width="120" height="60" as="geometry"/>
                </mxCell>
                <mxCell id="wn6AxMTklVbPtlHy1Jbe-11" value="use BUFFER_SIZE to set size of buffer for read&lt;br&gt;if no BUFFER_SIZE is passed, then define it&lt;br&gt;read file into buffer&lt;br&gt;" style="text;html=1;strokeColor=none;fillColor=none;align=left;verticalAlign=top;whiteSpace=wrap;rounded=0;spacing=12;" parent="1" vertex="1">
                    <mxGeometry x="1060" y="306" width="320" height="120" as="geometry"/>
                </mxCell>
                <mxCell id="13" style="edgeStyle=orthogonalEdgeStyle;rounded=0;html=1;exitX=0.5;exitY=1;exitDx=0;exitDy=0;entryX=0.5;entryY=0;entryDx=0;entryDy=0;labelBackgroundColor=#FFFFFF;strokeColor=#000000;fontFamily=Helvetica;fontSize=12;fontColor=#333333;" parent="1" source="3-mRH-yJR6cC4_X8FeAE-1" target="12" edge="1">
                    <mxGeometry relative="1" as="geometry"/>
                </mxCell>
                <mxCell id="3-mRH-yJR6cC4_X8FeAE-1" value="Nothing to read" style="rounded=0;whiteSpace=wrap;html=1;spacing=7;fontColor=#333333;labelBackgroundColor=#FFFFFF;fillColor=#FFFFFF;strokeColor=#666666;" parent="1" vertex="1">
                    <mxGeometry x="1405" y="570" width="120" height="60" as="geometry"/>
                </mxCell>
                <mxCell id="3-mRH-yJR6cC4_X8FeAE-17" style="edgeStyle=orthogonalEdgeStyle;rounded=0;orthogonalLoop=1;jettySize=auto;html=1;exitX=0.5;exitY=1;exitDx=0;exitDy=0;fontColor=#333333;labelBackgroundColor=#FFFFFF;fontSize=12;fillColor=#FFFFFF;strokeColor=#000000;spacing=7;entryX=0.5;entryY=0;entryDx=0;entryDy=0;" parent="1" source="3-mRH-yJR6cC4_X8FeAE-2" target="18" edge="1">
                    <mxGeometry relative="1" as="geometry"/>
                </mxCell>
                <mxCell id="3-mRH-yJR6cC4_X8FeAE-2" value="Lines to read" style="rounded=0;whiteSpace=wrap;html=1;spacing=7;fontColor=#333333;labelBackgroundColor=#FFFFFF;fillColor=#FFFFFF;strokeColor=#666666;" parent="1" vertex="1">
                    <mxGeometry x="2375" y="570" width="120" height="60" as="geometry"/>
                </mxCell>
                <mxCell id="3-mRH-yJR6cC4_X8FeAE-19" style="edgeStyle=orthogonalEdgeStyle;rounded=0;orthogonalLoop=1;jettySize=auto;html=1;exitX=0;exitY=0.5;exitDx=0;exitDy=0;entryX=0.5;entryY=0;entryDx=0;entryDy=0;fontColor=#000000;labelBackgroundColor=#FFFFFF;strokeColor=#000000;" parent="1" source="3-mRH-yJR6cC4_X8FeAE-12" target="3-mRH-yJR6cC4_X8FeAE-1" edge="1">
                    <mxGeometry relative="1" as="geometry"/>
                </mxCell>
                <mxCell id="3-mRH-yJR6cC4_X8FeAE-20" style="edgeStyle=orthogonalEdgeStyle;rounded=0;orthogonalLoop=1;jettySize=auto;html=1;exitX=1;exitY=0.5;exitDx=0;exitDy=0;entryX=0.5;entryY=0;entryDx=0;entryDy=0;fontColor=#000000;labelBackgroundColor=#FFFFFF;strokeColor=#000000;" parent="1" source="3-mRH-yJR6cC4_X8FeAE-12" target="3-mRH-yJR6cC4_X8FeAE-2" edge="1">
                    <mxGeometry relative="1" as="geometry"/>
                </mxCell>
                <mxCell id="3-mRH-yJR6cC4_X8FeAE-12" value="Use cases" style="rounded=0;whiteSpace=wrap;html=1;spacing=7;fontColor=#333333;labelBackgroundColor=#FFFFFF;fillColor=#FFFFFF;strokeColor=#666666;" parent="1" vertex="1">
                    <mxGeometry x="1890" y="485" width="120" height="60" as="geometry"/>
                </mxCell>
                <mxCell id="5" style="edgeStyle=orthogonalEdgeStyle;rounded=0;html=1;exitX=0.5;exitY=1;exitDx=0;exitDy=0;labelBackgroundColor=#FFFFFF;strokeColor=#000000;fontFamily=Helvetica;fontSize=12;fontColor=#333333;" parent="1" source="3-mRH-yJR6cC4_X8FeAE-15" target="2" edge="1">
                    <mxGeometry relative="1" as="geometry"/>
                </mxCell>
                <mxCell id="3-mRH-yJR6cC4_X8FeAE-15" value="New line character found within buffer size" style="rounded=0;whiteSpace=wrap;html=1;spacing=7;labelBackgroundColor=#FFFFFF;fillColor=#FFFFFF;fontColor=#333333;strokeColor=#666666;" parent="1" vertex="1">
                    <mxGeometry x="2375.5" y="995" width="120" height="60" as="geometry"/>
                </mxCell>
                <mxCell id="7" style="edgeStyle=orthogonalEdgeStyle;rounded=0;html=1;exitX=0.5;exitY=1;exitDx=0;exitDy=0;labelBackgroundColor=#FFFFFF;strokeColor=#000000;fontFamily=Helvetica;fontSize=12;fontColor=#333333;" parent="1" source="2" target="6" edge="1">
                    <mxGeometry relative="1" as="geometry"/>
                </mxCell>
                <mxCell id="2" value="Save remainder" style="rounded=0;whiteSpace=wrap;html=1;spacing=7;labelBackgroundColor=#FFFFFF;fillColor=#FFFFFF;fontColor=#333333;strokeColor=#666666;" parent="1" vertex="1">
                    <mxGeometry x="2375.5" y="1093" width="120" height="60" as="geometry"/>
                </mxCell>
                <mxCell id="10" style="edgeStyle=orthogonalEdgeStyle;rounded=0;html=1;exitX=0.5;exitY=1;exitDx=0;exitDy=0;labelBackgroundColor=#FFFFFF;strokeColor=#000000;fontFamily=Helvetica;fontSize=12;fontColor=#333333;" parent="1" source="6" target="9" edge="1">
                    <mxGeometry relative="1" as="geometry"/>
                </mxCell>
                <mxCell id="6" value="Return line up to nl char" style="rounded=0;whiteSpace=wrap;html=1;spacing=7;labelBackgroundColor=#FFFFFF;fillColor=#FFFFFF;fontColor=#333333;strokeColor=#666666;" parent="1" vertex="1">
                    <mxGeometry x="2375.5" y="1200" width="120" height="60" as="geometry"/>
                </mxCell>
                <mxCell id="11" style="edgeStyle=orthogonalEdgeStyle;rounded=0;html=1;exitX=0;exitY=0.5;exitDx=0;exitDy=0;entryX=0.5;entryY=1;entryDx=0;entryDy=0;labelBackgroundColor=#FFFFFF;strokeColor=#000000;fontFamily=Helvetica;fontSize=12;fontColor=#333333;" parent="1" source="9" target="3-mRH-yJR6cC4_X8FeAE-12" edge="1">
                    <mxGeometry relative="1" as="geometry"/>
                </mxCell>
                <mxCell id="14" value="YES" style="edgeLabel;html=1;align=center;verticalAlign=middle;resizable=0;points=[];fontSize=12;fontFamily=Helvetica;fontColor=#000000;labelBackgroundColor=#FFFFFF;" parent="11" vertex="1" connectable="0">
                    <mxGeometry x="0.0501" y="2" relative="1" as="geometry">
                        <mxPoint as="offset"/>
                    </mxGeometry>
                </mxCell>
                <mxCell id="15" style="edgeStyle=orthogonalEdgeStyle;rounded=0;html=1;entryX=0.5;entryY=0;entryDx=0;entryDy=0;labelBackgroundColor=#FFFFFF;strokeColor=#000000;fontFamily=Helvetica;fontSize=12;fontColor=#000000;" parent="1" source="9" target="17" edge="1">
                    <mxGeometry relative="1" as="geometry"/>
                </mxCell>
                <mxCell id="16" value="NO" style="edgeLabel;html=1;align=center;verticalAlign=middle;resizable=0;points=[];fontSize=12;fontFamily=Helvetica;fontColor=#000000;labelBackgroundColor=#FFFFFF;" parent="15" vertex="1" connectable="0">
                    <mxGeometry x="-0.5672" y="-1" relative="1" as="geometry">
                        <mxPoint x="1" y="45" as="offset"/>
                    </mxGeometry>
                </mxCell>
                <mxCell id="9" value="Is get_next_line called again?" style="rhombus;whiteSpace=wrap;html=1;rounded=0;labelBackgroundColor=#FFFFFF;strokeColor=#666666;fontFamily=Helvetica;fontSize=12;fontColor=#333333;fillColor=#FFFFFF;spacing=20;" parent="1" vertex="1">
                    <mxGeometry x="2359" y="1307" width="153" height="153" as="geometry"/>
                </mxCell>
                <mxCell id="12" value="Return null" style="rounded=0;whiteSpace=wrap;html=1;spacing=7;fontColor=#333333;labelBackgroundColor=#FFFFFF;fillColor=#FFFFFF;strokeColor=#666666;" parent="1" vertex="1">
                    <mxGeometry x="1405" y="687" width="120" height="60" as="geometry"/>
                </mxCell>
                <mxCell id="17" value="End" style="rounded=0;whiteSpace=wrap;html=1;spacing=7;fontColor=#333333;labelBackgroundColor=#FFFFFF;fillColor=#FFFFFF;strokeColor=#666666;" parent="1" vertex="1">
                    <mxGeometry x="2375.5" y="1533" width="120" height="60" as="geometry"/>
                </mxCell>
                <mxCell id="19" style="edgeStyle=orthogonalEdgeStyle;rounded=0;html=1;exitX=0.5;exitY=1;exitDx=0;exitDy=0;entryX=0.5;entryY=0;entryDx=0;entryDy=0;labelBackgroundColor=#FFFFFF;strokeColor=#000000;fontFamily=Helvetica;fontSize=12;fontColor=#000000;" parent="1" source="18" target="20" edge="1">
                    <mxGeometry relative="1" as="geometry"/>
                </mxCell>
                <mxCell id="18" value="Read from fd" style="rounded=0;whiteSpace=wrap;html=1;spacing=7;labelBackgroundColor=#FFFFFF;fillColor=#FFFFFF;fontColor=#333333;strokeColor=#666666;" parent="1" vertex="1">
                    <mxGeometry x="2375.5" y="690" width="120" height="57" as="geometry"/>
                </mxCell>
                <mxCell id="21" style="edgeStyle=orthogonalEdgeStyle;rounded=0;html=1;exitX=0.5;exitY=1;exitDx=0;exitDy=0;entryX=0.5;entryY=0;entryDx=0;entryDy=0;labelBackgroundColor=#FFFFFF;strokeColor=#000000;fontFamily=Helvetica;fontSize=12;fontColor=#000000;" parent="1" source="20" target="3-mRH-yJR6cC4_X8FeAE-15" edge="1">
                    <mxGeometry relative="1" as="geometry"/>
                </mxCell>
                <mxCell id="20" value="Is new line character found within size of reserved memory (100)?" style="rhombus;whiteSpace=wrap;html=1;rounded=0;labelBackgroundColor=none;strokeColor=#666666;fontFamily=Helvetica;fontSize=12;fontColor=#333333;fillColor=#FFFFFF;spacing=29;" parent="1" vertex="1">
                    <mxGeometry x="2358" y="804" width="154" height="147" as="geometry"/>
                </mxCell>
                <mxCell id="26" style="edgeStyle=orthogonalEdgeStyle;rounded=0;html=1;entryX=1;entryY=0.5;entryDx=0;entryDy=0;labelBackgroundColor=#FFFFFF;strokeColor=#000000;fontFamily=Helvetica;fontSize=12;fontColor=#000000;" parent="1" source="23" target="25" edge="1">
                    <mxGeometry relative="1" as="geometry"/>
                </mxCell>
                <mxCell id="27" value="YES" style="edgeLabel;html=1;align=center;verticalAlign=middle;resizable=0;points=[];fontSize=12;fontFamily=Helvetica;fontColor=#000000;labelBackgroundColor=#FFFFFF;" parent="26" vertex="1" connectable="0">
                    <mxGeometry x="-0.1742" y="3" relative="1" as="geometry">
                        <mxPoint x="1" y="-2" as="offset"/>
                    </mxGeometry>
                </mxCell>
                <mxCell id="29" style="edgeStyle=orthogonalEdgeStyle;rounded=0;html=1;exitX=0.5;exitY=1;exitDx=0;exitDy=0;entryX=0.5;entryY=0;entryDx=0;entryDy=0;labelBackgroundColor=#FFFFFF;strokeColor=#000000;fontFamily=Helvetica;fontSize=12;fontColor=#000000;" parent="1" source="23" target="31" edge="1">
                    <mxGeometry relative="1" as="geometry">
                        <mxPoint x="438" y="-625" as="targetPoint"/>
                    </mxGeometry>
                </mxCell>
                <mxCell id="30" value="NO" style="edgeLabel;html=1;align=center;verticalAlign=middle;resizable=0;points=[];fontSize=12;fontFamily=Helvetica;fontColor=#000000;labelBackgroundColor=#FFFFFF;" parent="29" vertex="1" connectable="0">
                    <mxGeometry x="-0.2921" relative="1" as="geometry">
                        <mxPoint as="offset"/>
                    </mxGeometry>
                </mxCell>
                <mxCell id="23" value="Is it the first time gnl it's called?" style="rhombus;whiteSpace=wrap;html=1;rounded=0;labelBackgroundColor=none;strokeColor=#666666;fontFamily=Helvetica;fontSize=12;fontColor=#333333;fillColor=#FFFFFF;spacing=29;" parent="1" vertex="1">
                    <mxGeometry x="361" y="-869" width="154" height="147" as="geometry"/>
                </mxCell>
                <mxCell id="35" style="edgeStyle=orthogonalEdgeStyle;rounded=0;html=1;exitX=0.5;exitY=1;exitDx=0;exitDy=0;entryX=0;entryY=0.5;entryDx=0;entryDy=0;labelBackgroundColor=#FFFFFF;strokeColor=#000000;fontFamily=Helvetica;fontSize=12;fontColor=#000000;" parent="1" source="25" target="31" edge="1">
                    <mxGeometry relative="1" as="geometry"/>
                </mxCell>
                <mxCell id="25" value="Init bookmark" style="rounded=0;whiteSpace=wrap;html=1;spacing=7;fontColor=#333333;labelBackgroundColor=#FFFFFF;fillColor=#FFFFFF;strokeColor=#666666;" parent="1" vertex="1">
                    <mxGeometry x="65" y="-825.5" width="120" height="60" as="geometry"/>
                </mxCell>
                <mxCell id="33" style="edgeStyle=orthogonalEdgeStyle;rounded=0;html=1;entryX=0;entryY=0.5;entryDx=0;entryDy=0;labelBackgroundColor=#FFFFFF;strokeColor=#000000;fontFamily=Helvetica;fontSize=12;fontColor=#000000;" parent="1" source="31" target="32" edge="1">
                    <mxGeometry relative="1" as="geometry"/>
                </mxCell>
                <mxCell id="34" value="NO" style="edgeLabel;html=1;align=center;verticalAlign=middle;resizable=0;points=[];fontSize=12;fontFamily=Helvetica;fontColor=#000000;labelBackgroundColor=#FFFFFF;" parent="33" vertex="1" connectable="0">
                    <mxGeometry x="-0.1758" y="1" relative="1" as="geometry">
                        <mxPoint as="offset"/>
                    </mxGeometry>
                </mxCell>
                <mxCell id="38" style="edgeStyle=orthogonalEdgeStyle;rounded=0;html=1;exitX=0.5;exitY=1;exitDx=0;exitDy=0;labelBackgroundColor=#FFFFFF;strokeColor=#000000;fontFamily=Helvetica;fontSize=12;fontColor=#000000;" parent="1" source="31" target="37" edge="1">
                    <mxGeometry relative="1" as="geometry"/>
                </mxCell>
                <mxCell id="39" value="YES" style="edgeLabel;html=1;align=center;verticalAlign=middle;resizable=0;points=[];fontSize=12;fontFamily=Helvetica;fontColor=#000000;labelBackgroundColor=#FFFFFF;" parent="38" vertex="1" connectable="0">
                    <mxGeometry x="-0.1556" y="3" relative="1" as="geometry">
                        <mxPoint as="offset"/>
                    </mxGeometry>
                </mxCell>
                <mxCell id="31" value="Is fd already bookmarked?" style="rhombus;whiteSpace=wrap;html=1;rounded=0;labelBackgroundColor=none;strokeColor=#666666;fontFamily=Helvetica;fontSize=12;fontColor=#333333;fillColor=#FFFFFF;spacing=29;" parent="1" vertex="1">
                    <mxGeometry x="361" y="-626" width="154" height="147" as="geometry"/>
                </mxCell>
                <mxCell id="70" style="edgeStyle=orthogonalEdgeStyle;rounded=0;html=1;exitX=0.5;exitY=1;exitDx=0;exitDy=0;entryX=1;entryY=0.25;entryDx=0;entryDy=0;labelBackgroundColor=#FFFFFF;strokeColor=#000000;fontFamily=Helvetica;fontSize=12;fontColor=#000000;" parent="1" source="32" target="40" edge="1">
                    <mxGeometry relative="1" as="geometry"/>
                </mxCell>
                <mxCell id="32" value="Bookmark fd" style="rounded=0;whiteSpace=wrap;html=1;spacing=7;fontColor=#333333;labelBackgroundColor=#FFFFFF;fillColor=#FFFFFF;strokeColor=#666666;" parent="1" vertex="1">
                    <mxGeometry x="625" y="-582.5" width="120" height="60" as="geometry"/>
                </mxCell>
                <mxCell id="41" style="edgeStyle=orthogonalEdgeStyle;rounded=0;html=1;exitX=0.5;exitY=1;exitDx=0;exitDy=0;labelBackgroundColor=#FFFFFF;strokeColor=#000000;fontFamily=Helvetica;fontSize=12;fontColor=#000000;" parent="1" source="37" target="40" edge="1">
                    <mxGeometry relative="1" as="geometry">
                        <mxPoint x="438" y="-149" as="targetPoint"/>
                    </mxGeometry>
                </mxCell>
                <mxCell id="42" value="NO" style="edgeLabel;html=1;align=center;verticalAlign=middle;resizable=0;points=[];fontSize=12;fontFamily=Helvetica;fontColor=#000000;labelBackgroundColor=#FFFFFF;" parent="41" vertex="1" connectable="0">
                    <mxGeometry x="0.051" y="2" relative="1" as="geometry">
                        <mxPoint y="-1" as="offset"/>
                    </mxGeometry>
                </mxCell>
                <mxCell id="44" value="YES" style="edgeStyle=orthogonalEdgeStyle;rounded=0;html=1;exitX=0;exitY=0.5;exitDx=0;exitDy=0;labelBackgroundColor=#FFFFFF;strokeColor=#000000;fontFamily=Helvetica;fontSize=12;fontColor=#000000;entryX=0.5;entryY=0;entryDx=0;entryDy=0;" parent="1" target="57" edge="1">
                    <mxGeometry x="-0.3057" relative="1" as="geometry">
                        <mxPoint x="362" y="-322.5000000000002" as="sourcePoint"/>
                        <mxPoint x="149" y="-149" as="targetPoint"/>
                        <mxPoint x="-1" as="offset"/>
                    </mxGeometry>
                </mxCell>
                <mxCell id="37" value="Does fd bookmark has any remainder?" style="rhombus;whiteSpace=wrap;html=1;rounded=0;labelBackgroundColor=none;strokeColor=#666666;fontFamily=Helvetica;fontSize=12;fontColor=#333333;fillColor=#FFFFFF;spacing=29;" parent="1" vertex="1">
                    <mxGeometry x="361" y="-396" width="154" height="147" as="geometry"/>
                </mxCell>
                <mxCell id="47" style="edgeStyle=orthogonalEdgeStyle;rounded=0;html=1;exitX=0.5;exitY=1;exitDx=0;exitDy=0;labelBackgroundColor=#FFFFFF;strokeColor=#000000;fontFamily=Helvetica;fontSize=12;fontColor=#000000;" parent="1" source="40" target="46" edge="1">
                    <mxGeometry relative="1" as="geometry"/>
                </mxCell>
                <mxCell id="40" value="Read from fd" style="rounded=0;whiteSpace=wrap;html=1;spacing=7;fontColor=#333333;labelBackgroundColor=#FFFFFF;fillColor=#FFFFFF;strokeColor=#666666;" parent="1" vertex="1">
                    <mxGeometry x="378" y="-117" width="120" height="60" as="geometry"/>
                </mxCell>
                <mxCell id="49" style="edgeStyle=orthogonalEdgeStyle;rounded=0;html=1;entryX=0;entryY=0.5;entryDx=0;entryDy=0;labelBackgroundColor=#FFFFFF;strokeColor=#000000;fontFamily=Helvetica;fontSize=12;fontColor=#000000;" parent="1" source="46" target="48" edge="1">
                    <mxGeometry relative="1" as="geometry"/>
                </mxCell>
                <mxCell id="50" value="NO" style="edgeLabel;html=1;align=center;verticalAlign=middle;resizable=0;points=[];fontSize=12;fontFamily=Helvetica;fontColor=#000000;labelBackgroundColor=#FFFFFF;" parent="49" vertex="1" connectable="0">
                    <mxGeometry x="-0.0215" relative="1" as="geometry">
                        <mxPoint as="offset"/>
                    </mxGeometry>
                </mxCell>
                <mxCell id="79" style="edgeStyle=orthogonalEdgeStyle;rounded=0;html=1;exitX=0.5;exitY=1;exitDx=0;exitDy=0;entryX=0.5;entryY=0;entryDx=0;entryDy=0;labelBackgroundColor=#FFFFFF;strokeColor=#000000;fontFamily=Helvetica;fontSize=12;fontColor=#000000;" parent="1" source="46" target="81" edge="1">
                    <mxGeometry relative="1" as="geometry">
                        <mxPoint x="437" y="519" as="targetPoint"/>
                    </mxGeometry>
                </mxCell>
                <mxCell id="80" value="YES" style="edgeLabel;html=1;align=center;verticalAlign=middle;resizable=0;points=[];fontSize=12;fontFamily=Helvetica;fontColor=#000000;labelBackgroundColor=#FFFFFF;" parent="79" vertex="1" connectable="0">
                    <mxGeometry x="-0.1" y="3" relative="1" as="geometry">
                        <mxPoint as="offset"/>
                    </mxGeometry>
                </mxCell>
                <mxCell id="46" value="New line char found on buf?" style="rhombus;whiteSpace=wrap;html=1;rounded=0;labelBackgroundColor=none;strokeColor=#666666;fontFamily=Helvetica;fontSize=12;fontColor=#333333;fillColor=#FFFFFF;spacing=29;" parent="1" vertex="1">
                    <mxGeometry x="361" y="292" width="154" height="147" as="geometry"/>
                </mxCell>
                <mxCell id="52" style="edgeStyle=orthogonalEdgeStyle;rounded=0;html=1;exitX=0.5;exitY=0;exitDx=0;exitDy=0;labelBackgroundColor=#FFFFFF;strokeColor=#000000;fontFamily=Helvetica;fontSize=12;fontColor=#000000;" parent="1" source="48" target="51" edge="1">
                    <mxGeometry relative="1" as="geometry"/>
                </mxCell>
                <mxCell id="48" value="Create buffer double in size" style="rounded=0;whiteSpace=wrap;html=1;spacing=7;fontColor=#333333;labelBackgroundColor=#FFFFFF;fillColor=#FFFFFF;strokeColor=#666666;" parent="1" vertex="1">
                    <mxGeometry x="625" y="335.5" width="120" height="60" as="geometry"/>
                </mxCell>
                <mxCell id="74" style="edgeStyle=orthogonalEdgeStyle;rounded=0;html=1;exitX=0.5;exitY=0;exitDx=0;exitDy=0;entryX=0.5;entryY=1;entryDx=0;entryDy=0;labelBackgroundColor=#FFFFFF;strokeColor=#000000;fontFamily=Helvetica;fontSize=12;fontColor=#000000;" parent="1" source="51" target="76" edge="1">
                    <mxGeometry relative="1" as="geometry"/>
                </mxCell>
                <mxCell id="51" value="Copy buf to double buf" style="rounded=0;whiteSpace=wrap;html=1;spacing=7;fontColor=#333333;labelBackgroundColor=#FFFFFF;fillColor=#FFFFFF;strokeColor=#666666;" parent="1" vertex="1">
                    <mxGeometry x="625" y="212" width="120" height="60" as="geometry"/>
                </mxCell>
                <mxCell id="61" style="edgeStyle=orthogonalEdgeStyle;rounded=0;html=1;exitX=0.5;exitY=1;exitDx=0;exitDy=0;entryX=0.5;entryY=0;entryDx=0;entryDy=0;labelBackgroundColor=#FFFFFF;strokeColor=#000000;fontFamily=Helvetica;fontSize=12;fontColor=#000000;" parent="1" source="57" target="64" edge="1">
                    <mxGeometry relative="1" as="geometry"/>
                </mxCell>
                <mxCell id="57" value="Add remainder to buf" style="rounded=0;whiteSpace=wrap;html=1;spacing=7;fontColor=#333333;labelBackgroundColor=#FFFFFF;fillColor=#FFFFFF;strokeColor=#666666;" parent="1" vertex="1">
                    <mxGeometry x="88" y="-283" width="120" height="60" as="geometry"/>
                </mxCell>
                <mxCell id="72" style="edgeStyle=orthogonalEdgeStyle;rounded=0;html=1;exitX=1;exitY=0.5;exitDx=0;exitDy=0;entryX=0;entryY=0.5;entryDx=0;entryDy=0;labelBackgroundColor=#FFFFFF;strokeColor=#000000;fontFamily=Helvetica;fontSize=12;fontColor=#000000;" parent="1" source="64" target="40" edge="1">
                    <mxGeometry relative="1" as="geometry"/>
                </mxCell>
                <mxCell id="64" value="Pass buf address plus remaindes size" style="rounded=0;whiteSpace=wrap;html=1;spacing=7;fontColor=#333333;labelBackgroundColor=#FFFFFF;fillColor=#FFFFFF;strokeColor=#666666;" parent="1" vertex="1">
                    <mxGeometry x="88" y="-117" width="120" height="60" as="geometry"/>
                </mxCell>
                <mxCell id="75" style="edgeStyle=orthogonalEdgeStyle;rounded=0;html=1;exitX=0.5;exitY=0;exitDx=0;exitDy=0;entryX=1;entryY=0.75;entryDx=0;entryDy=0;labelBackgroundColor=#FFFFFF;strokeColor=#000000;fontFamily=Helvetica;fontSize=12;fontColor=#000000;" parent="1" source="73" target="40" edge="1">
                    <mxGeometry relative="1" as="geometry"/>
                </mxCell>
                <mxCell id="73" value="Pass double buf address plus buf size" style="rounded=0;whiteSpace=wrap;html=1;spacing=7;fontColor=#333333;labelBackgroundColor=#FFFFFF;fillColor=#FFFFFF;strokeColor=#666666;" parent="1" vertex="1">
                    <mxGeometry x="625" y="-35" width="120" height="60" as="geometry"/>
                </mxCell>
                <mxCell id="77" style="edgeStyle=orthogonalEdgeStyle;rounded=0;html=1;exitX=0.5;exitY=0;exitDx=0;exitDy=0;entryX=0.5;entryY=1;entryDx=0;entryDy=0;labelBackgroundColor=#FFFFFF;strokeColor=#000000;fontFamily=Helvetica;fontSize=12;fontColor=#000000;" parent="1" source="76" target="73" edge="1">
                    <mxGeometry relative="1" as="geometry"/>
                </mxCell>
                <mxCell id="76" value="Free original buf" style="rounded=0;whiteSpace=wrap;html=1;spacing=7;fontColor=#333333;labelBackgroundColor=#FFFFFF;fillColor=#FFFFFF;strokeColor=#666666;" parent="1" vertex="1">
                    <mxGeometry x="625" y="88" width="120" height="60" as="geometry"/>
                </mxCell>
                <mxCell id="83" style="edgeStyle=orthogonalEdgeStyle;rounded=0;html=1;exitX=0;exitY=0.5;exitDx=0;exitDy=0;entryX=1;entryY=0.5;entryDx=0;entryDy=0;labelBackgroundColor=#FFFFFF;strokeColor=#000000;fontFamily=Helvetica;fontSize=12;fontColor=#000000;" parent="1" source="81" target="82" edge="1">
                    <mxGeometry relative="1" as="geometry"/>
                </mxCell>
                <mxCell id="84" value="YES" style="edgeLabel;html=1;align=center;verticalAlign=middle;resizable=0;points=[];fontSize=12;fontFamily=Helvetica;fontColor=#000000;labelBackgroundColor=#FFFFFF;" parent="83" vertex="1" connectable="0">
                    <mxGeometry x="-0.1766" y="3" relative="1" as="geometry">
                        <mxPoint x="1" as="offset"/>
                    </mxGeometry>
                </mxCell>
                <mxCell id="86" style="edgeStyle=orthogonalEdgeStyle;rounded=0;html=1;exitX=0.5;exitY=1;exitDx=0;exitDy=0;entryX=0.5;entryY=0;entryDx=0;entryDy=0;labelBackgroundColor=#FFFFFF;strokeColor=#000000;fontFamily=Helvetica;fontSize=12;fontColor=#000000;" parent="1" source="81" target="85" edge="1">
                    <mxGeometry relative="1" as="geometry"/>
                </mxCell>
                <mxCell id="99" value="NO" style="edgeLabel;html=1;align=center;verticalAlign=middle;resizable=0;points=[];fontSize=11;fontFamily=Helvetica;fontColor=#000000;labelBackgroundColor=#FFFFFF;" parent="86" vertex="1" connectable="0">
                    <mxGeometry x="-0.1399" y="1" relative="1" as="geometry">
                        <mxPoint as="offset"/>
                    </mxGeometry>
                </mxCell>
                <mxCell id="81" value="Is the new line the second to last character?" style="rhombus;whiteSpace=wrap;html=1;rounded=0;labelBackgroundColor=none;strokeColor=#666666;fontFamily=Helvetica;fontSize=12;fontColor=#333333;fillColor=#FFFFFF;spacing=29;" parent="1" vertex="1">
                    <mxGeometry x="361" y="523" width="154" height="147" as="geometry"/>
                </mxCell>
                <mxCell id="82" value="return buf" style="rounded=0;whiteSpace=wrap;html=1;spacing=7;fontColor=#333333;labelBackgroundColor=#FFFFFF;fillColor=#FFFFFF;strokeColor=#666666;" parent="1" vertex="1">
                    <mxGeometry x="114" y="566.5" width="120" height="60" as="geometry"/>
                </mxCell>
                <mxCell id="88" style="edgeStyle=orthogonalEdgeStyle;rounded=0;html=1;exitX=0.5;exitY=1;exitDx=0;exitDy=0;entryX=0.5;entryY=0;entryDx=0;entryDy=0;labelBackgroundColor=#FFFFFF;strokeColor=#000000;fontFamily=Helvetica;fontSize=12;fontColor=#000000;" parent="1" source="85" target="87" edge="1">
                    <mxGeometry relative="1" as="geometry"/>
                </mxCell>
                <mxCell id="85" value="create return buf of size of line until new line char + 1" style="rounded=0;whiteSpace=wrap;html=1;spacing=7;fontColor=#333333;labelBackgroundColor=#FFFFFF;fillColor=#FFFFFF;strokeColor=#666666;" parent="1" vertex="1">
                    <mxGeometry x="378" y="737" width="120" height="60" as="geometry"/>
                </mxCell>
                <mxCell id="90" style="edgeStyle=orthogonalEdgeStyle;rounded=0;html=1;exitX=0.5;exitY=1;exitDx=0;exitDy=0;entryX=0.5;entryY=0;entryDx=0;entryDy=0;labelBackgroundColor=#FFFFFF;strokeColor=#000000;fontFamily=Helvetica;fontSize=12;fontColor=#000000;" parent="1" source="87" target="89" edge="1">
                    <mxGeometry relative="1" as="geometry"/>
                </mxCell>
                <mxCell id="87" value="Save remainder in bookmark" style="rounded=0;whiteSpace=wrap;html=1;spacing=7;fontColor=#333333;labelBackgroundColor=#FFFFFF;fillColor=#FFFFFF;strokeColor=#666666;" parent="1" vertex="1">
                    <mxGeometry x="378" y="840" width="120" height="60" as="geometry"/>
                </mxCell>
                <mxCell id="89" value="return return-buf" style="rounded=0;whiteSpace=wrap;html=1;spacing=7;fontColor=#333333;labelBackgroundColor=#FFFFFF;fillColor=#FFFFFF;strokeColor=#666666;" parent="1" vertex="1">
                    <mxGeometry x="378" y="943" width="120" height="60" as="geometry"/>
                </mxCell>
                <mxCell id="93" style="edgeStyle=none;html=1;exitX=0.5;exitY=1;exitDx=0;exitDy=0;entryX=0.5;entryY=0;entryDx=0;entryDy=0;strokeColor=#000000;" parent="1" source="91" target="92" edge="1">
                    <mxGeometry relative="1" as="geometry"/>
                </mxCell>
                <mxCell id="91" value="get_next_line call" style="rounded=0;whiteSpace=wrap;html=1;spacing=7;fontColor=#333333;labelBackgroundColor=#FFFFFF;fillColor=#FFFFFF;strokeColor=#666666;" parent="1" vertex="1">
                    <mxGeometry x="378" y="-1358" width="120" height="60" as="geometry"/>
                </mxCell>
                <mxCell id="95" style="edgeStyle=none;shape=connector;rounded=1;html=1;exitX=0;exitY=0.5;exitDx=0;exitDy=0;entryX=1;entryY=0.5;entryDx=0;entryDy=0;labelBackgroundColor=default;strokeColor=#000000;fontFamily=Helvetica;fontSize=11;fontColor=default;endArrow=classic;" parent="1" source="92" target="94" edge="1">
                    <mxGeometry relative="1" as="geometry"/>
                </mxCell>
                <mxCell id="97" value="NO" style="edgeLabel;html=1;align=center;verticalAlign=middle;resizable=0;points=[];fontSize=11;fontFamily=Helvetica;fontColor=#000000;labelBackgroundColor=#FFFFFF;" parent="95" vertex="1" connectable="0">
                    <mxGeometry x="-0.1671" y="-3" relative="1" as="geometry">
                        <mxPoint x="-9" y="3" as="offset"/>
                    </mxGeometry>
                </mxCell>
                <mxCell id="96" style="edgeStyle=none;shape=connector;rounded=1;html=1;exitX=0.5;exitY=1;exitDx=0;exitDy=0;labelBackgroundColor=default;strokeColor=#000000;fontFamily=Helvetica;fontSize=11;fontColor=default;endArrow=classic;entryX=0.5;entryY=0;entryDx=0;entryDy=0;" parent="1" source="92" target="23" edge="1">
                    <mxGeometry relative="1" as="geometry">
                        <mxPoint x="438" y="-993" as="targetPoint"/>
                    </mxGeometry>
                </mxCell>
                <mxCell id="98" value="YES" style="edgeLabel;html=1;align=center;verticalAlign=middle;resizable=0;points=[];fontSize=11;fontFamily=Helvetica;fontColor=#000000;labelBackgroundColor=#FFFFFF;" parent="96" vertex="1" connectable="0">
                    <mxGeometry x="-0.105" relative="1" as="geometry">
                        <mxPoint as="offset"/>
                    </mxGeometry>
                </mxCell>
                <mxCell id="92" value="Is valid fd?" style="rhombus;whiteSpace=wrap;html=1;rounded=0;labelBackgroundColor=none;strokeColor=#666666;fontFamily=Helvetica;fontSize=12;fontColor=#333333;fillColor=#FFFFFF;spacing=29;" parent="1" vertex="1">
                    <mxGeometry x="361" y="-1237" width="154" height="147" as="geometry"/>
                </mxCell>
                <mxCell id="94" value="return null" style="rounded=0;whiteSpace=wrap;html=1;spacing=7;fontColor=#333333;labelBackgroundColor=#FFFFFF;fillColor=#FFFFFF;strokeColor=#666666;" parent="1" vertex="1">
                    <mxGeometry x="125" y="-1193.5" width="120" height="60" as="geometry"/>
                </mxCell>
                <mxCell id="110" value="" style="group" vertex="1" connectable="0" parent="1">
                    <mxGeometry x="825" y="-951" width="581" height="647" as="geometry"/>
                </mxCell>
                <mxCell id="100" value="bookmark_manager" style="rounded=0;whiteSpace=wrap;html=1;fillColor=#FFFFFF;strokeColor=#000000;fontColor=#000000;verticalAlign=top;spacing=8;" vertex="1" parent="110">
                    <mxGeometry width="581" height="647" as="geometry"/>
                </mxCell>
                <mxCell id="103" value="Is it the first time gnl it's called?" style="rhombus;whiteSpace=wrap;html=1;rounded=0;labelBackgroundColor=none;strokeColor=#666666;fontFamily=Helvetica;fontSize=12;fontColor=#333333;fillColor=#FFFFFF;spacing=29;" vertex="1" parent="110">
                    <mxGeometry x="224" y="128.5" width="154" height="147" as="geometry"/>
                </mxCell>
                <mxCell id="105" value="Init bookmark" style="rounded=0;whiteSpace=wrap;html=1;spacing=7;fontColor=#333333;labelBackgroundColor=#FFFFFF;fillColor=#FFFFFF;strokeColor=#666666;" vertex="1" parent="110">
                    <mxGeometry x="13" y="172" width="120" height="60" as="geometry"/>
                </mxCell>
                <mxCell id="101" style="edgeStyle=orthogonalEdgeStyle;rounded=0;html=1;entryX=1;entryY=0.5;entryDx=0;entryDy=0;labelBackgroundColor=#FFFFFF;strokeColor=#000000;fontFamily=Helvetica;fontSize=12;fontColor=#000000;" edge="1" parent="110" source="103" target="105">
                    <mxGeometry relative="1" as="geometry"/>
                </mxCell>
                <mxCell id="102" value="YES" style="edgeLabel;html=1;align=center;verticalAlign=middle;resizable=0;points=[];fontSize=12;fontFamily=Helvetica;fontColor=#000000;labelBackgroundColor=#FFFFFF;" vertex="1" connectable="0" parent="101">
                    <mxGeometry x="-0.1742" y="3" relative="1" as="geometry">
                        <mxPoint x="1" y="-2" as="offset"/>
                    </mxGeometry>
                </mxCell>
                <mxCell id="108" value="Is fd already bookmarked?" style="rhombus;whiteSpace=wrap;html=1;rounded=0;labelBackgroundColor=none;strokeColor=#666666;fontFamily=Helvetica;fontSize=12;fontColor=#333333;fillColor=#FFFFFF;spacing=29;" vertex="1" parent="110">
                    <mxGeometry x="224" y="366" width="154" height="147" as="geometry"/>
                </mxCell>
                <mxCell id="104" style="edgeStyle=orthogonalEdgeStyle;rounded=0;html=1;exitX=0.5;exitY=1;exitDx=0;exitDy=0;entryX=0;entryY=0.5;entryDx=0;entryDy=0;labelBackgroundColor=#FFFFFF;strokeColor=#000000;fontFamily=Helvetica;fontSize=12;fontColor=#000000;" edge="1" parent="110" source="105" target="108">
                    <mxGeometry relative="1" as="geometry"/>
                </mxCell>
                <mxCell id="109" value="Bookmark fd" style="rounded=0;whiteSpace=wrap;html=1;spacing=7;fontColor=#333333;labelBackgroundColor=#FFFFFF;fillColor=#FFFFFF;strokeColor=#666666;" vertex="1" parent="110">
                    <mxGeometry x="442" y="409.5" width="120" height="60" as="geometry"/>
                </mxCell>
                <mxCell id="106" style="edgeStyle=orthogonalEdgeStyle;rounded=0;html=1;entryX=0;entryY=0.5;entryDx=0;entryDy=0;labelBackgroundColor=#FFFFFF;strokeColor=#000000;fontFamily=Helvetica;fontSize=12;fontColor=#000000;" edge="1" parent="110" source="108" target="109">
                    <mxGeometry relative="1" as="geometry"/>
                </mxCell>
                <mxCell id="107" value="NO" style="edgeLabel;html=1;align=center;verticalAlign=middle;resizable=0;points=[];fontSize=12;fontFamily=Helvetica;fontColor=#000000;labelBackgroundColor=#FFFFFF;" vertex="1" connectable="0" parent="106">
                    <mxGeometry x="-0.1758" y="1" relative="1" as="geometry">
                        <mxPoint as="offset"/>
                    </mxGeometry>
                </mxCell>
            </root>
        </mxGraphModel>
    </diagram>
</mxfile>